<?xml version="1.0" standalone="no"?><!DOCTYPE svg PUBLIC "-//W3C//DTD SVG 1.1//EN" "http://www.w3.org/Graphics/SVG/1.1/DTD/svg11.dtd"><svg t="1713018421043" class="icon" viewBox="0 0 1024 1024" version="1.1" xmlns="http://www.w3.org/2000/svg" p-id="9140" xmlns:xlink="http://www.w3.org/1999/xlink" width="200" height="200"><path d="M454.07 129.44c13.61-13 28.54-23.89 48.13-24.52a53.86 53.86 0 0 1 56 50c1.78 22.52-9.64 38-26.23 50.94-27.41 21.36-54.85 42.68-81 65.52-12.9 11.25-26.31 22-36.84 35.78-15.2 19.95-14.81 45.24 1.62 64.18 12.86 14.81 29.08 24.65 47.13 31.73 15.2 6 15.5 5.9 15.49-10.4 0-36.14 0.74-72.28-0.31-108.42-0.17-5.94 1.94-7.21 8-4.66 30.32 12.82 58.76 28.29 83.72 50.51 36.19 32.22 66.19 69.18 91.68 110.16 15.7 25.23 29.66 51.28 40.3 79.06a30.36 30.36 0 0 1 1.5 4.36c0.28 1.34 2.25 2.68 0.42 4.11-1.37 1.07-2.93 0.47-4.42 0-21.85-7.39-43.68-14.83-65.56-22.14-27.66-9.26-55.37-18.39-83-27.62-7.71-2.57-15.42-5.17-23-8-5.71-2.15-7.18-0.24-7.16 5.51 0.2 47.17 0.18 94.34 0.21 141.51 0 23.14-0.08 46.29 0.12 69.43 0 4.43-1.1 7.29-5.11 9.66-10.22 6-20.15 12.55-30.19 18.89-1.66 1-3.28 2.8-5.33 1.9-2.6-1.14-1.68-3.81-1.68-5.9v-91.25-127.63c0-11-0.55-22-0.48-33 0-4.24-1.48-6.17-5.5-7.56-24.77-8.56-49.3-17.85-69.94-34.56-16.81-13.55-30.94-29.53-37.64-50.2-7.71-23.77-6.05-47.19 6-69.69 12.49-23.29 32.09-39.89 51.51-56.83 27.86-24.3 57.26-46.67 86.07-69.78a27.61 27.61 0 0 0 3-2.55c4.52-4.9 5.44-11.87 2.23-16.39-3.08-4.33-10.27-5.53-16.29-2.43a42.73 42.73 0 0 0-13 9.87c-2.41-0.61-3.2 2.23-5.21 2.46-9.45-9.86-15.59-22.34-25.24-32.05zM700 524.37l0.78 0.39-0.36-0.82c-2.09-7.15-6-13.64-8.43-20.49-5.52-15.41-13.41-29.57-21.51-43.52-17.32-29.82-36.54-58.38-59.41-84.39-23.7-27-48.93-52-80.12-70.48a435 435 0 0 0-43.2-22c-6.63-3-6.08 0-6.06 4.58 0.08 24 0 48.05 0 72.08 0 15 0.05 30 0.07 45 0 6.8-1.31 7.74-7.94 5.32-4.1-1.49-8.07-3.37-12.18-4.85-18.95-6.8-35.59-17.13-48.27-32.91-18.81-23.41-17.06-45.42 0.18-68.57 8.1-10.86 18.63-19.39 28.71-28.12 29.71-25.75 60.68-50 91.56-74.31 17.47-13.76 27.88-33.13 19.43-58.19-5.05-15-14.53-26.26-29.3-31.65-23.06-8.42-43.2-1-61.42 13.69-1.66 1.34-3.29 3.28-0.66 4.69 7.64 4.08 10.82 11.69 15.55 18.16 1.91 2.61 1.26 8 5.32 7.69 3.13-0.22 5.74-3.67 8.37-6.06 7-6.37 19-6.24 24.67 0 5.49 6 4.21 14.86-3.76 22-4.86 4.36-10.44 7.91-15.58 12-23.12 18.19-46.07 36.56-68.31 55.84-18 15.64-36.41 30.6-49.84 50.93-16.89 25.59-20.69 52.5-9 80.46 11.08 26.48 31.62 44.81 56.62 58.4 15.56 8.46 32.1 14.53 48.54 20.9 7.69 3 15 6.74 22.87 9.53 11.28 4 23.2 5.4 34.49 9.28 26.52 9.12 53.11 18 79.69 26.93 20.49 6.89 41 13.68 61.49 20.59 8.89 2.88 17.66 6.31 27.01 7.9z m-218.3 72.5v109c0 2-1 4.7 1.57 5.93 2.36 1.13 4.13-0.76 6-1.93 7.95-5.09 15.88-10.22 23.86-15.27 4-2.5 6.06-5.46 5.95-10.67-0.37-18-0.12-36.11-0.12-54.17v-130.8c0-3.93 0.27-7.75-5.23-8-8.69-0.34-16.11-4.89-24.05-7.61-7-2.39-8-2.31-8 5.14q0 54.21 0.02 108.38z" fill="#2396ED" p-id="9141"></path><path d="M454.07 129.44c9.65 9.71 15.79 22.19 25.25 32.05-13.4 8.69-26.94 17.19-40.14 26.18-3.71 2.52-8.91 3.17-10.93 8l-0.36-0.18-0.29 0.28c-7.32 0.51-11.59 6.57-17.24 9.95-9.21 5.52-19.14 10.16-27.05 17.73l-0.41-0.14-0.3 0.32q-24.09 15.06-48.18 30.08c-4.58 2.83-8.95 6.31-14.79 6.19 0.43-0.75 0.87-1.5 1.3-2.26l22.37-21.11c11.63-11 23.68-21.59 34.82-33 17-17.38 34.74-34 51.84-51.21 7.81-7.88 16.94-14.46 23.49-23.58a2.33 2.33 0 0 1 0.62 0.7z" fill="#2396ED" p-id="9142"></path><path d="M700 524.37c-9.32-1.59-18.09-5-27-8-20.48-6.91-41-13.7-61.49-20.59-26.58-8.94-53.17-17.81-79.69-26.93-11.29-3.88-23.21-5.26-34.49-9.28-7.83-2.79-15.18-6.55-22.87-9.53-16.44-6.37-33-12.44-48.54-20.9-25-13.59-45.54-31.92-56.62-58.4-11.69-28-7.89-54.87 9-80.46 13.43-20.33 31.8-35.29 49.84-50.93 22.24-19.28 45.19-37.65 68.31-55.84 5.14-4 10.72-7.6 15.58-12 8-7.14 9.25-16 3.76-22-5.7-6.19-17.69-6.32-24.67 0-2.63 2.39-5.24 5.84-8.37 6.06-4.06 0.29-3.41-5.08-5.32-7.69-4.73-6.47-7.91-14.08-15.55-18.16-2.63-1.41-1-3.35 0.66-4.69 18.22-14.7 38.36-22.11 61.42-13.69 14.77 5.39 24.25 16.69 29.3 31.65 8.45 25.06-2 44.43-19.43 58.19-30.88 24.33-61.85 48.56-91.56 74.31-10.08 8.73-20.61 17.26-28.71 28.12-17.24 23.15-19 45.16-0.18 68.57 12.62 15.82 29.29 26.17 48.24 32.97 4.11 1.48 8.08 3.36 12.18 4.85 6.63 2.42 7.95 1.48 7.94-5.32 0-15-0.07-30-0.07-45 0-24 0.08-48.05 0-72.08 0-4.59-0.57-7.56 6.06-4.58a435 435 0 0 1 43.2 22c31.19 18.47 56.42 43.52 80.12 70.48 22.87 26 42.09 54.57 59.41 84.39 8.1 13.95 16 28.11 21.51 43.52 2.46 6.85 6.34 13.34 8.43 20.49zM520.09 384.51h0.06v34.35c0 3 0.22 5.13 4 6.38 33.29 11.06 66.47 22.41 99.7 33.66 1.23 0.42 2.71 1 3.76 0 1.63-1.55-0.2-2.77-0.84-4-1.63-3.09-3.31-6.17-5.14-9.15-24.61-40.07-58.94-70.64-96.22-98.32-1.18-0.88-2.24-2.61-3.92-1.93-2.12 0.85-1.3 3-1.31 4.67-0.12 11.44-0.09 22.89-0.09 34.34zM481.7 596.87V488.52c0-7.45 1-7.53 8-5.14 7.94 2.72 15.36 7.27 24.05 7.61 5.5 0.22 5.24 4 5.23 8q-0.08 65.4 0 130.8c0 18.06-0.25 36.12 0.12 54.17 0.11 5.21-2 8.17-5.95 10.67-8 5-15.91 10.18-23.86 15.27-1.82 1.17-3.59 3.06-6 1.93-2.56-1.23-1.56-3.88-1.57-5.93q-0.09-54.49 0-109zM924.23 863.42c2.91 36-29.82 82.14-72.79 91.71-36.57 8.14-70.5 3.42-98.46-22.48-25.75-23.86-36.41-54.85-29.44-89.41 6.57-32.54 25.41-57.59 56.79-70.51 37.74-15.53 74.77-12.73 107.32 12.61 24.09 18.74 37.35 44.52 36.58 78.08z m-101 56.79c34.9 1.16 56.51-28.42 57.18-57.09 0.73-31.48-22.65-60.74-56.78-60.86-37.29-0.12-59 29.38-57.9 61.47 0.99 27.74 22.12 57.27 57.55 56.48zM427.81 766.48a276 276 0 0 0 30.44-0.12c2.28 1 5.13 0.22 6.95 2.95 2.54 3.81 5.65 7.23 8.46 10.86q19.09 24.58 38.15 49.2l0.44-0.16-0.42 0.2c5.57 9.74 13.45 17.76 20 26.79 5.13 7.11 10.6 14 16 20.92 1.05 1.36 2.27 3.17 4.19 2.41 1.75-0.7 0.67-2.76 0.88-4.2a27.24 27.24 0 0 0 0-3.94v-97.54c0-2.65-0.14-5.31 1.9-7.43a200.09 200.09 0 0 0 27.81-0.14 22.69 22.69 0 0 0 4.52 0.51c4.84-0.38 6.54 1.59 6.53 6.51q-0.21 87.87 0 175.73c0 5.48-2.41 6.91-7.11 6.86-7.26-0.09-14.54-0.36-21.79 0-5 0.24-8.26-1.75-10.91-5.79s-5.49-8.41-9.62-11.45c-12.64-19.24-27.22-37-41.62-54.9L467 836.55a69 69 0 0 0-0.44 20l-0.24 97.91c-1.67 1.33-3.62 1.32-5.63 1.31-9.26 0-18.52-0.28-27.76 0.09-5.95 0.24-8.1-1.68-8.08-7.89q0.27-86.91 0-173.84c0.04-3.01 0.51-5.65 2.96-7.65zM377.7 861.25c0 29.07-0.14 58.14 0.11 87.21 0.05 5.84-1.9 7.9-7.62 7.71-9.68-0.33-19.37-0.3-29.06-0.18-4 0-5.31-1.48-5.3-5.48q0.17-88.53 0-177.07c0-5.12 1.33-7 6.66-6.76 9 0.4 18.06 0.33 27.08 0 6.05-0.26 8.4 1.37 8.31 8.06-0.39 28.84-0.17 57.7-0.17 86.55zM643.42 766.47a123.69 123.69 0 0 0 21.17-0.14 4.25 4.25 0 0 0 4 0l14.31 0.76c0.19 0.71 0.37 1.43 0.56 2.15-0.1 12.29-0.28 24.58-0.29 36.87q-0.07 74.16-0.07 148.31c-9.17 2.78-18.56 0.9-27.84 1.11-12.79 0.3-12.8 0-14.64-11.7a34.42 34.42 0 0 0 0.42-3.9v-166.8c0-1.3-0.2-2.61-0.31-3.92zM99.72 861c0-28 0.17-56-0.12-84-0.07-6.46 2.06-8.5 8.38-8.19 10.41 0.51 20.85 0.39 31.28 0.35 2.25 0 3.12 1.29 4.09 2.73 3.94 5.8 8.33 11.35 11.67 17.48 8.71 16 19.93 30.42 28.25 46.64 1.85 3.63 5.51 6.15 7.07 10.1 1.36 3.46 4.31 1 6.41 1.41 3.11 0.53 0.36-2.09 1-3.16 4.12-6.91 8-14 12.29-20.79 5.42-8.63 11.56-16.84 16.58-25.69s10.62-17.1 16.18-25.49c1.77-2.66 4.15-3.59 7.31-3.53 9.48 0.16 19 0.43 28.43 0 5.76-0.24 7 2.06 6.95 7.31q-0.23 81.34-0.09 162.69c0 1.77-0.11 3.54 0.06 5.29 0.9 9.21 0.92 9.21-8 9.22-7.5 0-15-0.3-22.48 0.09-5.42 0.29-7.18-1.38-7.13-7 0.27-34.16 0.18-68.34 0.18-102.51a46.3 46.3 0 0 0-0.48-9.21c-0.58-2.88-2.43-3.75-4.43-0.81-3.34 4.9-6.47 10-9.92 14.79-12.91 18.09-24.12 37.28-36.42 55.77-2.35 3.52-4.09 4.9-7.46 0q-15.07-21.94-29.53-44.29c-5-7.69-10.31-15.18-15.32-22.88-1.31-2-3.05-4.47-5.6-3.65s-1.78 3.72-1.78 5.87c0 35.27-0.16 70.55 0.13 105.82 0.05 6.29-1.59 8.6-8.05 8.15a207.69 207.69 0 0 0-23.14 0c-5 0.21-6.4-1.68-6.37-6.5 0.15-28.7 0.06-57.36 0.06-86.01z" fill="#2396ED" p-id="9143"></path></svg>