<?xml version="1.0" standalone="no"?><!DOCTYPE svg PUBLIC "-//W3C//DTD SVG 1.1//EN" "http://www.w3.org/Graphics/SVG/1.1/DTD/svg11.dtd"><svg t="1713018258971" class="icon" viewBox="0 0 1024 1024" version="1.1" xmlns="http://www.w3.org/2000/svg" p-id="7284" xmlns:xlink="http://www.w3.org/1999/xlink" width="200" height="200"><path d="M352 377.6V704c0 38.4 25.6 64 64 64s64-25.6 64-64V313.6c0-70.4 57.6-121.6 128-121.6s128 51.2 128 121.6V768h-64V326.4c0-44.8-25.6-70.4-64-70.4s-64 25.6-64 70.4v390.4c0 70.4-57.6 115.2-128 115.2s-128-44.8-128-115.2V377.6c-38.4-12.8-64-51.2-64-89.6C224 236.8 268.8 192 320 192s96 44.8 96 96c0 44.8-25.6 76.8-64 89.6z m256 358.4c0-51.2 44.8-96 96-96s96 44.8 96 96S755.2 832 704 832s-96-44.8-96-96z" fill="#FF0000" p-id="7285"></path></svg>